<?xml version="1.0" encoding="UTF-8" standalone="no"?>
<svg
   version="1.1"
   width="48"
   height="48"
   viewBox="0 0 48 48"
   id="svg3"
   sodipodi:docname="series.svg"
   inkscape:version="1.4.3 (0d15f75, 2025-12-25)"
   xmlns:inkscape="http://www.inkscape.org/namespaces/inkscape"
   xmlns:sodipodi="http://sodipodi.sourceforge.net/DTD/sodipodi-0.dtd"
   xmlns="http://www.w3.org/2000/svg"
   xmlns:svg="http://www.w3.org/2000/svg">
  <defs
     id="defs3" />
  <sodipodi:namedview
     id="namedview3"
     pagecolor="#ffffff"
     bordercolor="#000000"
     borderopacity="0.25"
     inkscape:showpageshadow="2"
     inkscape:pageopacity="0.0"
     inkscape:pagecheckerboard="0"
     inkscape:deskcolor="#d1d1d1"
     inkscape:zoom="2.9720582"
     inkscape:cx="6.3928762"
     inkscape:cy="32.469082"
     inkscape:window-width="1920"
     inkscape:window-height="1009"
     inkscape:window-x="-8"
     inkscape:window-y="-8"
     inkscape:window-maximized="1"
     inkscape:current-layer="svg3" />
  <g
     style="fill:none;stroke:#000000;stroke-width:2.7;stroke-linecap:butt;stroke-linejoin:miter;stroke-opacity:1;stroke-dasharray:none"
     id="g3">
    <path
       d="M25.64,12.68v-2.54c0-1.62,1.5-2.81,3.05-2.42l9.79,2.5c1.37.35,2.32,1.6,2.32,3.03v16.84c0,1.62-1.5,2.81-3.05,2.42l-5.79-1.48"
       id="path1"
       style="stroke-width:2.7;stroke-dasharray:none" />
    <path
       d="M16.42,16.46v-2.44c0-1.62,1.5-2.81,3.05-2.42l9.79,2.5c1.37.35,2.32,1.6,2.32,3.03v16.84c0,1.62-1.5,2.81-3.05,2.42l-5.82-1.49"
       id="path2"
       style="stroke-width:2.7;stroke-dasharray:none" />
    <path
       d="M9.52,37.77c-1.37-.35-2.32-1.6-2.32-3.03v-16.84c0-1.62,1.5-2.81,3.05-2.42l9.79,2.5c1.35.35,2.32,1.6,2.32,3.03v16.84c0,1.62-1.5,2.81-3.05,2.42l-9.79-2.5Z"
       id="path3"
       style="stroke-width:2.7;stroke-dasharray:none" />
  </g>
</svg>
